<svg width="800" height="800" viewBox="0 0 800 800" xmlns="http://www.w3.org/2000/svg">
  <defs>
    <pattern id="grid" width="80" height="80" patternUnits="userSpaceOnUse">
      <path d="M 80 0 L 0 0 0 80" fill="none" stroke="currentColor" stroke-width="1" opacity="0.2"/>
    </pattern>
    
    <pattern id="circuit" width="160" height="160" patternUnits="userSpaceOnUse">
      <!-- Horizontal Lines -->
      <line x1="0" y1="40" x2="160" y2="40" stroke="currentColor" stroke-width="1.5" opacity="0.3"/>
      <line x1="0" y1="120" x2="160" y2="120" stroke="currentColor" stroke-width="1.5" opacity="0.3"/>
      
      <!-- Vertical Lines -->
      <line x1="40" y1="0" x2="40" y2="160" stroke="currentColor" stroke-width="1.5" opacity="0.3"/>
      <line x1="120" y1="0" x2="120" y2="160" stroke="currentColor" stroke-width="1.5" opacity="0.3"/>
      
      <!-- Nodes -->
      <circle cx="40" cy="40" r="4" fill="currentColor" opacity="0.5"/>
      <circle cx="120" cy="40" r="4" fill="currentColor" opacity="0.5"/>
      <circle cx="40" cy="120" r="4" fill="currentColor" opacity="0.5"/>
      <circle cx="120" cy="120" r="4" fill="currentColor" opacity="0.5"/>
      
      <!-- Circuit Paths -->
      <path d="M 40 40 C 60 40, 80 60, 80 80 C 80 100, 100 120, 120 120" fill="none" stroke="currentColor" stroke-width="2" opacity="0.4"/>
      <path d="M 120 40 C 100 40, 80 20, 80 0" fill="none" stroke="currentColor" stroke-width="2" opacity="0.4"/>
      <path d="M 40 120 C 20 120, 0 100, 0 80" fill="none" stroke="currentColor" stroke-width="2" opacity="0.4"/>
    </pattern>
  </defs>
  
  <rect width="800" height="800" fill="url(#grid)"/>
  <rect width="800" height="800" fill="url(#circuit)"/>
</svg>
